<svg xmlns="http://www.w3.org/2000/svg" xmlns:xlink="http://www.w3.org/1999/xlink" width="182" height="182" viewBox="0 0 182 182">
  <defs>
    <linearGradient id="linear-gradient" x1="0.5" y1="-4.055" x2="0.5" y2="3.921" gradientUnits="objectBoundingBox">
      <stop offset="0.029" stop-color="#d39c46"/>
      <stop offset="0.229" stop-color="#e3ba6f"/>
      <stop offset="0.5" stop-color="#fde8ad"/>
      <stop offset="1" stop-color="#f9d58d"/>
    </linearGradient>
    <linearGradient id="linear-gradient-2" x1="0.5" y1="-13.797" x2="0.5" y2="10.009" xlink:href="#linear-gradient"/>
    <linearGradient id="linear-gradient-3" x1="0.5" y1="-38.151" x2="0.5" y2="28.78" xlink:href="#linear-gradient"/>
    <linearGradient id="linear-gradient-4" x1="0.5" y1="-4875.443" x2="0.5" y2="3128.068" xlink:href="#linear-gradient"/>
    <linearGradient id="linear-gradient-5" x1="0.5" y1="-7.01" x2="0.5" y2="5.214" xlink:href="#linear-gradient"/>
    <linearGradient id="linear-gradient-6" x1="0.5" y1="-2.894" x2="0.5" y2="3.427" xlink:href="#linear-gradient"/>
    <linearGradient id="linear-gradient-7" x1="0.5" y1="-10.745" x2="0.5" y2="27.849" xlink:href="#linear-gradient"/>
    <linearGradient id="linear-gradient-8" x1="0.5" y1="-35.866" x2="0.5" y2="91.26" xlink:href="#linear-gradient"/>
    <linearGradient id="linear-gradient-9" x1="0.5" y1="-25.203" x2="0.5" y2="64.835" xlink:href="#linear-gradient"/>
    <linearGradient id="linear-gradient-10" x1="0.5" y1="-65.946" x2="0.5" y2="164.614" xlink:href="#linear-gradient"/>
    <linearGradient id="linear-gradient-11" x1="0.5" y1="-11.441" x2="0.5" y2="29.303" xlink:href="#linear-gradient"/>
    <linearGradient id="linear-gradient-12" x1="0.5" y1="-1.865" x2="0.5" y2="4.48" xlink:href="#linear-gradient"/>
    <linearGradient id="linear-gradient-13" x1="0.5" y1="-2.902" x2="0.5" y2="4.83" xlink:href="#linear-gradient"/>
    <linearGradient id="linear-gradient-14" x1="0.5" y1="-0.718" x2="0.5" y2="1.891" xlink:href="#linear-gradient"/>
  </defs>
  <g id="Group_27" data-name="Group 27" transform="translate(-401.351 -220.321)">
    <g id="Group_26" data-name="Group 26">
      <g id="Group_25" data-name="Group 25">
        <g id="Group_24" data-name="Group 24">
          <path id="Path_167" data-name="Path 167" d="M557.1,372.821a8.719,8.719,0,0,1,.75-3.379,9.5,9.5,0,0,1,.639,2.176q.624-.684,1.231-1.382a11.425,11.425,0,0,0-.893-2.223,8.68,8.68,0,0,0,4.016-1.541q1.742-2.224,3.341-4.562a8.632,8.632,0,0,0,.359-1.613c.153.082.342.174.546.27q1.045-1.584,2.027-3.215a11.343,11.343,0,0,0-2.573.992,8.7,8.7,0,0,0-1.861-4.475,9.72,9.72,0,0,0,6.767-6.677,18.191,18.191,0,0,1,1.818,2.411c.252-.532.5-1.065.744-1.6-.321-.458-.656-.9-1.014-1.333a11.487,11.487,0,0,0,1.52.176q.31-.72.61-1.444a8.971,8.971,0,0,1-2.064-.232l3.51-3.511q.573-1.589,1.087-3.206L572,344.107a8.28,8.28,0,0,1,2.3-7.954,17.677,17.677,0,0,1,4.919-3.235q.231-.926.442-1.859a20.767,20.767,0,0,0-6.422,4.034,9.8,9.8,0,0,0-2.735,9.082,19.775,19.775,0,0,0-4.231-2.693c-.35.4-.717.78-1.076,1.168a18.24,18.24,0,0,1,4.78,3.071,9.72,9.72,0,0,0-6.676,6.768,8.682,8.682,0,0,0-4.475-1.86,11.376,11.376,0,0,0,1.04-2.8q-1.52,1.322-3.12,2.551l.127.25c-.2.022-.392.073-.588.109a69.258,69.258,0,0,1-5.863,3.99,8.663,8.663,0,0,0-1.265,3.616,11.154,11.154,0,0,0-3.189-1.121c-1.064.544-2.15,1.051-3.246,1.54a7.561,7.561,0,0,1,1.627-.192,8.7,8.7,0,0,1,3.379.75,8.72,8.72,0,0,1-3.379.75,8.494,8.494,0,0,1-3.131-.654q-2.472,1.032-5.042,1.868a8.189,8.189,0,0,1-6.34,2.786,14.105,14.105,0,0,1-3.172-.4c-1.146.2-2.3.363-3.468.505a19.739,19.739,0,0,0,6.64,1.4,9.807,9.807,0,0,0,8.353-4.484,19.646,19.646,0,0,0,4.515,10.887,9.8,9.8,0,0,0-9.082,2.736c-4.271,4.27-6.2,12.784-6.514,14.291l-.548.548.368.368-.078.4.4-.078.368.368.548-.548c1.508-.315,10.021-2.243,14.291-6.514a9.806,9.806,0,0,0,2.735-9.082,19.7,19.7,0,0,0,6.7,3.667c.444-.394.883-.795,1.319-1.2a18.181,18.181,0,0,1-7.49-4.015,9.721,9.721,0,0,0,6.676-6.767,8.706,8.706,0,0,0,4.476,1.86,10.505,10.505,0,0,0-1.274,4.808,9.131,9.131,0,0,0,.161,1.658q.687-.689,1.358-1.39C557.116,373,557.1,372.912,557.1,372.821Zm9.766-23.577a8.728,8.728,0,0,1,2.923-1.86,8,8,0,0,1-4.785,4.781A8.723,8.723,0,0,1,566.867,349.244Zm-32.183,26.527a8.2,8.2,0,0,1,5.939-2.532,8.761,8.761,0,0,1,2.012.238l-13.468,13.468C530.03,383.831,531.808,378.646,534.684,375.771Zm6.717,6.717c-2.875,2.876-8.059,4.654-11.174,5.517L543.7,374.533A8.282,8.282,0,0,1,541.4,382.488Zm7.435-13.091a8.731,8.731,0,0,1-2.923,1.86,8,8,0,0,1,4.785-4.781A8.723,8.723,0,0,1,548.836,369.4Zm-2.121-2.121a10.5,10.5,0,0,0-2.462,4.173,18.14,18.14,0,0,1-4.6-11.1,9.691,9.691,0,0,0,9.505-.057,8.7,8.7,0,0,0,1.86,4.476A10.552,10.552,0,0,0,546.715,367.276Zm6.056-2.791.022-.107-.107.021a7.23,7.23,0,0,1-2.082-5.015l.095-.063-.095-.064a7.23,7.23,0,0,1,2.082-5.015l.107.021-.022-.107a7.227,7.227,0,0,1,5.018-2.082l.062.094.063-.094a7.222,7.222,0,0,1,5.017,2.082l-.021.107.106-.021a7.221,7.221,0,0,1,2.082,5.015l-.094.064.094.063a7.221,7.221,0,0,1-2.082,5.015l-.106-.021.021.107a7.223,7.223,0,0,1-5.017,2.083l-.063-.1-.062.1A7.227,7.227,0,0,1,552.771,364.485Z" fill="url(#linear-gradient)"/>
          <path id="Path_168" data-name="Path 168" d="M448.375,364.981l-.381.154-.431-.291-.434.642c-1.422.6-9.41,4.113-12.788,9.118a10.059,10.059,0,0,0-1.532,3.531q.656.583,1.32,1.156a8.473,8.473,0,0,1,1.455-3.847c2.274-3.37,7.025-6.105,9.918-7.547l-9.009,13.35q.588.469,1.182.93l9.071-13.442c-.254,3.221-1.013,8.651-3.287,12.021a8.349,8.349,0,0,1-3.587,3.065c.453.329.911.654,1.37.974a9.837,9.837,0,0,0,3.46-3.2c3.379-5.006,3.649-13.732,3.671-15.272l.433-.642-.431-.291Z" fill="url(#linear-gradient-2)"/>
          <path id="Path_169" data-name="Path 169" d="M422.606,367.4a40.958,40.958,0,0,0-5.163-7.1Q419.853,363.986,422.606,367.4Z" fill="url(#linear-gradient-3)"/>
          <path id="Path_170" data-name="Path 170" d="M416.276,358.479l.032.051-.011-.055Z" fill="url(#linear-gradient-4)"/>
          <path id="Path_171" data-name="Path 171" d="M529.448,369.4l-.368-.368-.548.547c-1.508.315-10.021,2.245-14.291,6.515a9.805,9.805,0,0,0-2.735,9.082,19.66,19.66,0,0,0-10.888-4.515,9.808,9.808,0,0,0,4.483-8.353,22.588,22.588,0,0,0-2.225-8.667c-.606-.106-1.214-.2-1.814-.323,1.291,2.707,2.539,6.066,2.539,8.99a8.285,8.285,0,0,1-4,7.249V362.985c-.5-.113-1-.222-1.5-.346v16.916a8.282,8.282,0,0,1-4-7.248c0-3.275,1.561-7.09,3-9.927-.5-.132-.99-.278-1.483-.421-1.472,2.949-3.017,6.869-3.017,10.348a9.806,9.806,0,0,0,4.484,8.353,19.65,19.65,0,0,0-10.888,4.516,9.807,9.807,0,0,0-2.735-9.083c-4.27-4.27-12.784-6.2-14.292-6.515l-.548-.547-.368.368-.4-.078.078.4-.368.369.547.547c.315,1.509,2.244,10.022,6.514,14.292a9.64,9.64,0,0,0,6.991,2.942,10.963,10.963,0,0,0,2.091-.2,19.652,19.652,0,0,0-4.514,10.886,9.807,9.807,0,0,0-8.353-4.483,19.631,19.631,0,0,0-6.586,1.38c.823-.713,1.413-1.273,1.685-1.537l.76-.147-.1-.511.29-.29-.378-.161-.1-.511-.76.148c-1.425-.583-9.557-3.75-15.491-2.6-.19.037-.369.083-.55.128q1.105.6,2.232,1.173c3.763-.277,8.233.939,10.953,1.849l-4.893.95q1.279.534,2.58,1.027l2.6-.5c-.368.314-.789.659-1.236,1.015q1.731.629,3.495,1.184a17.31,17.31,0,0,1,5.5-1.1,8.285,8.285,0,0,1,7.249,4H477.4q2.367.4,4.776.671a8.517,8.517,0,0,1,3.174-.671,8.7,8.7,0,0,1,3.379.75,10.688,10.688,0,0,1-1.061.379c1.312.067,2.634.1,3.961.112-.01-.143-.024-.284-.026-.429l.1-.062-.1-.063a7.229,7.229,0,0,1,2.082-5.018l.108.022-.022-.107a7.223,7.223,0,0,1,5.016-2.081l.063.094.064-.094a7.222,7.222,0,0,1,5.016,2.082l-.021.106.106-.022a7.228,7.228,0,0,1,2.054,4.535c2.646-.407,5.25-.935,7.814-1.568a8.964,8.964,0,0,0-1.533-.136,10.5,10.5,0,0,0-4.807,1.273,8.7,8.7,0,0,0-1.861-4.475,9.724,9.724,0,0,0,6.768-6.677,18.167,18.167,0,0,1,4.388,9.237c.492-.14.98-.288,1.469-.436a19.645,19.645,0,0,0-4.31-9.325,10.966,10.966,0,0,0,2.092.2,9.637,9.637,0,0,0,6.989-2.942c4.27-4.27,6.2-12.783,6.514-14.292l.547-.547-.368-.369.078-.4ZM475.684,383.87c-2.875-2.875-4.654-8.059-5.518-11.174l13.472,13.472A8.279,8.279,0,0,1,475.684,383.87Zm-4.457-12.234c3.114.863,8.3,2.642,11.175,5.518a8.281,8.281,0,0,1,2.3,7.954Zm18.932,27.708a9.7,9.7,0,0,0-9.505-.057,18.142,18.142,0,0,1,4.6-11.094,9.722,9.722,0,0,0,6.767,6.675A8.706,8.706,0,0,0,490.159,399.344Zm-3.244-10.962a8,8,0,0,1,4.781,4.785,8,8,0,0,1-4.781-4.785Zm6.484,5.107a9.716,9.716,0,0,0-6.676-6.767,18.146,18.146,0,0,1,11.1-4.6,9.691,9.691,0,0,0,.057,9.505A8.707,8.707,0,0,0,493.4,393.489Zm5.452-3.289a7.987,7.987,0,0,1,0-6.758,7.987,7.987,0,0,1,0,6.758Zm10.077,1.1a8.7,8.7,0,0,1-2.92,1.859,7.986,7.986,0,0,1,4.779-4.779A8.71,8.71,0,0,1,508.928,391.3Zm-2.122-2.121a10.548,10.548,0,0,0-2.5,4.305,8.7,8.7,0,0,0-4.475-1.861,9.7,9.7,0,0,0,.057-9.505,18.148,18.148,0,0,1,11.094,4.6A10.51,10.51,0,0,0,506.806,389.184Zm6.2-4.076a8.279,8.279,0,0,1,2.3-7.954c2.875-2.875,8.059-4.655,11.173-5.518Zm9.014-1.238a8.288,8.288,0,0,1-7.954,2.3L527.536,372.7C526.673,375.81,524.894,380.995,522.018,383.87Z" fill="url(#linear-gradient-5)"/>
          <path id="Path_172" data-name="Path 172" d="M442.462,314.093c-4.27-4.27-12.784-6.2-14.292-6.515l-.548-.547-.368.368-.4-.078.078.4-.368.369.547.547c.315,1.509,2.244,10.022,6.514,14.292a9.641,9.641,0,0,0,6.99,2.943,10.881,10.881,0,0,0,2.092-.206,19.652,19.652,0,0,0-4.514,10.887,9.807,9.807,0,0,0-8.353-4.484c-6.039,0-13.423,4.655-14.712,5.5h-.775v.52l-.339.23.339.229v.521h.775c1.289.844,8.673,5.5,14.712,5.5a9.81,9.81,0,0,0,8.353-4.484,19.65,19.65,0,0,0,4.516,10.888,9.81,9.81,0,0,0-9.084,2.735c-4.27,4.27-6.2,12.784-6.514,14.292l-.547.548.368.368-.078.4.4-.078.368.368.548-.547c1.508-.315,10.022-2.244,14.292-6.514a9.809,9.809,0,0,0,2.735-9.084,19.643,19.643,0,0,0,10.888,4.516,9.81,9.81,0,0,0-4.484,8.353c0,6.039,4.656,13.423,5.5,14.712v.775h.521l.229.339.23-.339h.52v-.775c.845-1.289,5.5-8.673,5.5-14.712a9.807,9.807,0,0,0-4.484-8.353,19.646,19.646,0,0,0,10.889-4.516,9.809,9.809,0,0,0,2.735,9.084c4.27,4.27,12.783,6.2,14.292,6.514l.547.547.369-.368.4.078-.078-.4.368-.368-.547-.548a41.9,41.9,0,0,0-3.525-10.058c-.859-.413-1.7-.852-2.542-1.3a33.035,33.035,0,0,1,4.01,9.3L473.071,352.48a9.18,9.18,0,0,1,2.337-.216c-.643-.45-1.285-.9-1.912-1.374-.174.026-.343.054-.5.085.08-.1.152-.2.23-.3-.4-.307-.8-.622-1.193-.938-.192.238-.379.481-.583.709a11.473,11.473,0,0,0-.742-1.781q-2.519-2.111-4.828-4.452a11.45,11.45,0,0,0-1.2-.443c.119-.149.217-.314.326-.471-.349-.366-.707-.724-1.048-1.1a7.281,7.281,0,0,1-.945,1.2l-.107-.022.021.108a7.222,7.222,0,0,1-5.016,2.082l-.063-.1-.063.1a7.225,7.225,0,0,1-5.016-2.082l.022-.108-.108.022a7.225,7.225,0,0,1-2.082-5.016l.1-.063-.1-.063a7.222,7.222,0,0,1,2.082-5.016l.108.021-.022-.107a7.241,7.241,0,0,1,3.117-1.8c-.261-.435-.506-.88-.758-1.32a8.725,8.725,0,0,0-2.732,1.458,9.72,9.72,0,0,0-6.676-6.768,18.235,18.235,0,0,1,5.263-3.279c-.187-.468-.379-.934-.556-1.408a19.727,19.727,0,0,0-5.233,3.142A9.808,9.808,0,0,0,442.462,314.093Zm-12.624,28.978c-4.066,0-8.991-2.409-11.8-4h19.053A8.287,8.287,0,0,1,429.838,343.071Zm-11.8-5.5c2.813-1.592,7.738-4,11.8-4a8.285,8.285,0,0,1,7.249,4ZM472,353.533l13.473,13.474c-3.113-.863-8.3-2.641-11.176-5.519A8.283,8.283,0,0,1,472,353.533Zm-37.32-31.662c-2.875-2.875-4.654-8.061-5.518-11.175l13.465,13.465A8.346,8.346,0,0,1,434.684,321.871Zm-4.458-12.236c3.113.862,8.3,2.64,11.176,5.518a8.284,8.284,0,0,1,2.3,7.955Zm4.458,45.135a8.2,8.2,0,0,1,5.939-2.531,8.761,8.761,0,0,1,2.012.238l-13.47,13.469C430.028,362.833,431.806,357.649,434.684,354.77Zm6.718,6.718c-2.875,2.875-8.061,4.654-11.176,5.518l13.466-13.466A8.345,8.345,0,0,1,441.4,361.488Zm21.2,4.846c0,4.066-2.408,8.991-4,11.8V359.085A8.285,8.285,0,0,1,462.6,366.334Zm5.327-19a8.71,8.71,0,0,1,1.858,2.92,7.987,7.987,0,0,1-4.778-4.779A8.73,8.73,0,0,1,467.928,347.336Zm-4.625-2.183a9.721,9.721,0,0,0,6.676,6.767,18.142,18.142,0,0,1-11.094,4.6,9.695,9.695,0,0,0-.058-9.505A8.7,8.7,0,0,0,463.3,345.153Zm-5.452,3.289a7.987,7.987,0,0,1,0,6.758,7.987,7.987,0,0,1,0-6.758Zm-.75,29.7c-1.591-2.812-4-7.737-4-11.8a8.285,8.285,0,0,1,4-7.249Zm-.226-31.124a9.691,9.691,0,0,0-.057,9.505,18.148,18.148,0,0,1-11.1-4.6,9.721,9.721,0,0,0,6.676-6.767A8.706,8.706,0,0,0,456.875,347.013Zm-10.959,3.243a7.986,7.986,0,0,1,4.779-4.779,7.986,7.986,0,0,1-4.779,4.779Zm5.1-6.483a9.721,9.721,0,0,0-6.767,6.676,18.147,18.147,0,0,1-4.6-11.1,9.691,9.691,0,0,0,9.505-.057A8.706,8.706,0,0,0,451.019,343.773Zm-10.047-5.452a7.987,7.987,0,0,1,6.758,0,7.987,7.987,0,0,1-6.758,0Zm7.864-10.077a8.73,8.73,0,0,1,1.859,2.92,7.987,7.987,0,0,1-4.779-4.778A8.71,8.71,0,0,1,448.836,328.244Zm-2.121,2.121a10.568,10.568,0,0,0,4.3,2.5,8.7,8.7,0,0,0-1.86,4.475,9.7,9.7,0,0,0-9.505-.057,18.142,18.142,0,0,1,4.6-11.094A10.525,10.525,0,0,0,446.715,330.365Z" fill="url(#linear-gradient-6)"/>
          <path id="Path_173" data-name="Path 173" d="M486.1,231.334a8.285,8.285,0,0,1,4-7.249v7.8c.5-.192,1-.386,1.5-.567v-7.234a8.279,8.279,0,0,1,3.911,5.973c.485-.142.968-.283,1.458-.414a9.847,9.847,0,0,0-4.353-6.663,19.578,19.578,0,0,0,4.693-1.013c-1.642-.09-3.294-.147-4.959-.147-2.512,0-5,.109-7.46.312a19.684,19.684,0,0,0,4.194.848,9.81,9.81,0,0,0-4.484,8.353,14.863,14.863,0,0,0,.3,2.793c.467-.226.945-.432,1.418-.647A12.856,12.856,0,0,1,486.1,231.334Z" fill="url(#linear-gradient-7)"/>
          <path id="Path_174" data-name="Path 174" d="M510.054,223.584l3.736,3.736c.336-.005.668-.025,1.005-.025.372,0,.741.015,1.112.021l-3.143-3.142Q511.417,223.859,510.054,223.584Z" fill="url(#linear-gradient-8)"/>
          <path id="Path_175" data-name="Path 175" d="M507.3,226.488a8.4,8.4,0,0,1-2.241-3.768c-.519-.074-1.046-.124-1.568-.188a9.693,9.693,0,0,0,2.748,5.017c.089.089.19.171.284.258.684-.082,1.369-.158,2.059-.22A12.335,12.335,0,0,1,507.3,226.488Z" fill="url(#linear-gradient-9)"/>
          <path id="Path_176" data-name="Path 176" d="M518.388,227.4c.549.029,1.1.054,1.645.1q-.252-.715-.546-1.46c-.629-.2-1.252-.414-1.887-.6C517.891,226.1,518.149,226.752,518.388,227.4Z" fill="url(#linear-gradient-10)"/>
          <path id="Path_177" data-name="Path 177" d="M460.254,234.242l.368.368.548-.547c1.508-.315,10.022-2.244,14.292-6.514a9.739,9.739,0,0,0,2.65-4.6c-.547.087-1.094.175-1.637.272a8.463,8.463,0,0,1-2.073,3.263c-2.875,2.875-8.061,4.654-11.176,5.518l7.565-7.565c-.965.239-1.926.488-2.878.758l-5.748,5.747a43.749,43.749,0,0,1,1.482-4.423c-.625.211-1.247.432-1.866.657A45.582,45.582,0,0,0,460.109,233l-.547.548.368.368-.078.4Z" fill="url(#linear-gradient-11)"/>
          <path id="Path_178" data-name="Path 178" d="M421.222,264.764a9.8,9.8,0,0,0,7.9-3.958,19.657,19.657,0,0,0,3.8,11.16,9.808,9.808,0,0,0-9.242,2.139c-4.539,3.984-7.016,12.355-7.428,13.84l-.582.51.344.391-.1.4.406-.052.344.391.581-.51c1.524-.216,10.147-1.588,14.685-5.573a9.808,9.808,0,0,0,3.319-8.887,19.647,19.647,0,0,0,10.572,5.213,9.806,9.806,0,0,0-5.016,8.044c-.392,6.026,3.774,13.7,4.533,15.038l-.05.773.52.034.207.354.251-.324.287.019a69.439,69.439,0,0,1-.449-7.769,68.541,68.541,0,0,1,4.1-23.423,11.093,11.093,0,0,0-.938-3.517,8.69,8.69,0,0,0,2.558-.515c.313-.718.63-1.434.967-2.139a7.155,7.155,0,0,1-4.341,1.156l-.057-.1-.069.09a7.2,7.2,0,0,1-4.871-2.4l.029-.109-.112.015a7.2,7.2,0,0,1-1.748-5.142l.1-.057-.09-.069a7.2,7.2,0,0,1,2.4-4.871l.109.03-.015-.113a7.192,7.192,0,0,1,4.724-1.762c.138,0,.278.005.417.013l.058.1.069-.089a7.189,7.189,0,0,1,4.871,2.4l-.03.108.113-.014a7.186,7.186,0,0,1,1.752,4.708c.4-.666.834-1.317,1.261-1.968a8.651,8.651,0,0,0-1.324-3,9.716,9.716,0,0,0,7.181-6.222c.214.274.41.562.608.848.347-.384.709-.754,1.064-1.13l-.1-.146.193.046c.4-.42.79-.847,1.2-1.257a9.075,9.075,0,0,1-1.225-.276l14.318-12.57c-.343.984-.806,2.184-1.364,3.438.727-.463,1.461-.916,2.206-1.352.74-1.91,1.189-3.445,1.344-4l.581-.511-.343-.391.1-.4-.407.052-.343-.391-.581.511c-1.524.215-10.147,1.588-14.685,5.572a9.806,9.806,0,0,0-3.319,8.887,19.654,19.654,0,0,0-10.572-5.213,9.806,9.806,0,0,0,5.016-8.044,15.744,15.744,0,0,0-.217-3.557c-.479.208-.958.418-1.433.634a13.705,13.705,0,0,1,.153,2.825,8.286,8.286,0,0,1-4.461,6.974l.517-7.962c-.522.268-1.04.543-1.557.821l-.458,7.044a8.361,8.361,0,0,1-3.318-4.886c-.446.27-.887.546-1.328.823a10.08,10.08,0,0,0,3.562,5.1,19.664,19.664,0,0,0-11.16,3.8,10.6,10.6,0,0,0,.3-3.8q-.714.554-1.415,1.123a8.868,8.868,0,0,1-.38,2.507l-1.115-1.27c-.382.323-.763.647-1.139.976l1.127,1.284a8.907,8.907,0,0,1-2.61.041q-.672.613-1.332,1.24a10.274,10.274,0,0,0,2.5.312,10.759,10.759,0,0,0,1.415-.1,19.645,19.645,0,0,0-5.217,10.573,10.023,10.023,0,0,0-4.863-4.305q-.527.612-1.043,1.232a8.363,8.363,0,0,1,4.738,4.015l-7.52-.488q-.533.711-1.048,1.435l8.47.55a8.288,8.288,0,0,1-7.492,3.522,14.348,14.348,0,0,1-3.308-.664q-.422.649-.832,1.306a16.391,16.391,0,0,0,4.042.854C420.741,264.756,420.984,264.764,421.222,264.764Zm45.548-26.5c3.055-2.682,8.346-4.121,11.509-4.78l-14.317,12.569A8.281,8.281,0,0,1,466.77,238.269Zm-42.1,36.963a8.22,8.22,0,0,1,5.537-2.157,8.886,8.886,0,0,1,2.55.381l-14.318,12.57C419.5,282.974,421.61,277.914,424.665,275.232Zm6.268,7.14c-3.056,2.682-8.346,4.121-11.509,4.78l14.317-12.569A8.283,8.283,0,0,1,430.933,282.372Zm14.586,17.633c-1.4-2.911-3.489-7.981-3.225-12.038a8.284,8.284,0,0,1,4.461-6.974Zm3.2-26.164a8.719,8.719,0,0,1-.967,3.323,7.99,7.99,0,0,1,.44-6.747A8.7,8.7,0,0,1,448.723,273.841Zm-1.41-4.91a9.7,9.7,0,0,0-.674,9.482,18.152,18.152,0,0,1-10.773-5.309,9.716,9.716,0,0,0,7.1-6.314A8.667,8.667,0,0,0,447.313,268.931Zm-11.146,2.525A7.981,7.981,0,0,1,441.245,267a7.981,7.981,0,0,1-5.078,4.458Zm23.324-19.478a8.716,8.716,0,0,1-3.034,1.665,7.986,7.986,0,0,1,5.079-4.458A8.72,8.72,0,0,1,459.491,251.978Zm-8.428-9.75a18.152,18.152,0,0,1,10.773,5.309,9.712,9.712,0,0,0-7.1,6.314,8.665,8.665,0,0,0-4.349-2.14,9.691,9.691,0,0,0,.674-9.483Zm-1.116,1.249a7.989,7.989,0,0,1-.44,6.747,8,8,0,0,1,.44-6.747Zm-1.108-1.407.173.006a9.7,9.7,0,0,0-.57,9.509,8.67,8.67,0,0,0-4.59,1.559,9.716,9.716,0,0,0-6.238-7.188A18.171,18.171,0,0,1,448.839,242.07Zm-6.665,10.645a7.986,7.986,0,0,1-4.458-5.079,7.986,7.986,0,0,1,4.458,5.079Zm-6.107-5.385a9.715,9.715,0,0,0,6.315,7.1,8.667,8.667,0,0,0-2.141,4.348,9.692,9.692,0,0,0-9.484-.672A18.158,18.158,0,0,1,436.067,247.33Zm2.688,12.335a8,8,0,0,1-6.747-.44,7.99,7.99,0,0,1,6.747.44Zm-3.521,2.025q.282.018.558.018a10.717,10.717,0,0,0,4.323-.978,8.649,8.649,0,0,0,1.56,4.59,9.712,9.712,0,0,0-7.181,6.221,18.147,18.147,0,0,1-3.869-11.37A10.472,10.472,0,0,0,435.234,261.69Z" fill="url(#linear-gradient-12)"/>
          <path id="Path_179" data-name="Path 179" d="M405.363,290.209a18.152,18.152,0,0,1,6.149,9.623,10.523,10.523,0,0,0-4.837-.293,9.833,9.833,0,0,0-3.206,1.274q-.174,1.482-.3,2.977a11.017,11.017,0,0,0,2.628.329,9.1,9.1,0,0,0,1.735-.163,10.463,10.463,0,0,0,4.375-2.085,18.155,18.155,0,0,1-2.392,11.769,10.548,10.548,0,0,0-3.216-3.633,9.948,9.948,0,0,0-3.4-1.42c-.016.511-.024,1.024-.031,1.537a8.337,8.337,0,0,1,2.6,1.126,8.73,8.73,0,0,1,2.382,2.513,8.727,8.727,0,0,1-3.221-1.269,8,8,0,0,1-1.764-1.667c0,.166-.007.329-.007.494,0,.568.011,1.134.022,1.7a8.684,8.684,0,0,0,.91.716,10.515,10.515,0,0,0,4.573,1.623,18.115,18.115,0,0,1-5.092,4.553q.079.832.175,1.661a19.608,19.608,0,0,0,5.721-4.789,9.809,9.809,0,0,0,4.416,8.387c5,3.377,13.728,3.649,15.272,3.67l.642.433.291-.431h.41l-.154-.381.291-.431-.642-.434c-.6-1.421-4.113-9.41-9.118-12.788a9.805,9.805,0,0,0-9.431-.956,19.658,19.658,0,0,0,2.346-11.55,9.871,9.871,0,0,0,7.023,3.014,10.677,10.677,0,0,0,2.037-.2c5.928-1.151,12.291-7.13,13.394-8.2l.76-.148-.1-.51.29-.29-.377-.161-.1-.511-.761.148c-1.429-.584-9.56-3.744-15.49-2.6a9.809,9.809,0,0,0-7.348,6,19.662,19.662,0,0,0-6.5-9.831h.008A9.814,9.814,0,0,0,414.7,284.6c3.379-5.006,3.649-13.732,3.671-15.272l.433-.642-.431-.291v-.41l-.381.154-.431-.291-.434.642a45.242,45.242,0,0,0-4.577,2.271q-.631,1.242-1.224,2.507A43.745,43.745,0,0,1,415.5,270.9l-7.986,11.834Q406.28,286.4,405.363,290.209Zm1.884,12.275a8.711,8.711,0,0,1-3.46-.093,7.993,7.993,0,0,1,6.634-1.287A8.731,8.731,0,0,1,407.247,302.484Zm12.482,13.57c3.37,2.273,6.105,7.024,7.546,9.917L411.491,315.32A8.346,8.346,0,0,1,419.729,316.054Zm6.708,11.161c-3.221-.254-8.652-1.013-12.022-3.286a8.287,8.287,0,0,1-3.771-7.372Zm-4.18-23.571a8.285,8.285,0,0,1-7.878-2.545l18.7-3.631C430.627,299.566,426.253,302.869,422.257,303.644Zm-1.811-9.325c3.99-.777,9.284.65,12.349,1.677l-18.7,3.631A8.28,8.28,0,0,1,420.446,294.319Zm-6.987-10.562a8.283,8.283,0,0,1-7.37,3.771l10.657-15.793C416.492,274.956,415.733,280.387,413.459,283.757Z" fill="url(#linear-gradient-13)"/>
          <g id="Group_23" data-name="Group 23">
            <path id="Path_180" data-name="Path 180" d="M492.351,402.321a91,91,0,1,1,33.562-175.61l12.43,4.936-13.215-2.06a67.2,67.2,0,1,0,55.259,81.084l2.964-13.3v13.95A91.1,91.1,0,0,1,492.351,402.321Zm0-179a88,88,0,1,0,87.219,99.748,70.2,70.2,0,1,1-66.327-97.257A88.074,88.074,0,0,0,492.351,223.321Z" fill="url(#linear-gradient-14)"/>
          </g>
        </g>
      </g>
    </g>
  </g>
</svg>
